<svg width="357" height="367" viewBox="0 0 357 367" fill="none" xmlns="http://www.w3.org/2000/svg">
<g clip-path="url(#clip0_6_80)">
<path fill-rule="evenodd" clip-rule="evenodd" d="M126.612 31.0356L171.209 56.7833L171.593 55.9816L183.148 35.9665C185.728 31.499 192.486 30.52 198.193 33.8151C203.881 37.0989 206.42 43.4721 203.852 47.9199L192.297 67.9351L191.794 68.6686L267.742 112.517L268.126 111.715L279.682 91.7C282.261 87.2325 289.019 86.2535 294.707 89.5373C300.395 92.8211 302.934 99.1943 300.366 103.642L288.81 123.657L288.308 124.391L335.758 151.786C337.785 152.956 338.484 155.564 337.314 157.591L315.202 195.89C314.032 197.917 311.424 198.615 309.397 197.445L100.251 76.6946C98.2353 75.5046 97.5366 72.897 98.7069 70.8699L120.819 32.5714C121.989 30.5443 124.585 29.8653 126.612 31.0356ZM92.6098 83.5665L307.286 207.51C307.798 207.805 307.953 208.446 307.668 208.938L217.04 365.91C216.756 366.402 216.104 366.577 215.612 366.293L0.936341 242.35C0.444326 242.066 0.249969 241.402 0.534027 240.91L91.1508 83.9575C91.4462 83.4458 92.0981 83.2711 92.6098 83.5665ZM99.0419 107.695L286.145 215.72C287.169 216.311 287.484 217.673 286.927 218.638L214.116 344.751C213.559 345.715 212.162 346.09 211.198 345.533L23.1888 236.986C22.2245 236.429 21.8161 235.091 22.4069 234.068L94.7072 108.84C95.8775 106.813 98.4738 106.134 100.481 107.293L99.0419 107.695ZM259.861 147.801C265.549 151.084 272.338 150.097 274.906 145.649L286.985 124.729L287.391 123.888L266.806 112.002L266.281 112.775L254.736 132.771C252.157 137.238 254.688 143.58 260.376 146.864L259.861 147.801ZM163.328 92.067C169.016 95.3508 175.805 94.3635 178.373 89.9157L190.451 68.9952L190.858 68.1542L170.292 56.2803L169.767 57.0531L158.223 77.0486C155.643 81.5161 158.174 87.8583 163.862 91.142L163.328 92.067Z" fill="#EEEEEE" fill-opacity="0.86"/>
</g>
<defs>
<clipPath id="clip0_6_80">
<rect width="250" height="279.247" fill="white" transform="translate(139.624) rotate(30)"/>
</clipPath>
</defs>
</svg>
