<svg width="40" height="32" viewBox="0 0 40 32" fill="none" xmlns="http://www.w3.org/2000/svg">
<g clip-path="url(#clip0_81_91)">
<path d="M33.8838 3.38016C31.2549 2.17782 28.48 1.32459 25.6298 0.842187C25.2428 1.53539 24.8885 2.26063 24.5757 2.99133C23.0596 2.7626 21.5285 2.64749 19.9953 2.64695C18.4645 2.64695 16.9262 2.76328 15.4143 2.98836C15.1055 2.25945 14.7469 1.53672 14.3576 0.841797C11.5112 1.32711 8.72913 2.18523 6.10171 3.38516C0.877723 11.1133 -0.53798 18.6483 0.169832 26.0763C3.2288 28.3357 6.6524 30.054 10.2919 31.1567C11.1081 30.0549 11.8393 28.882 12.4601 27.6614C11.2757 27.2201 10.1328 26.6747 9.04475 26.0316C9.33108 25.8239 9.61108 25.61 9.88163 25.4023C13.0454 26.8881 16.5023 27.6632 19.9999 27.6632C23.4976 27.6632 26.9545 26.8881 30.1184 25.402C30.3922 25.6255 30.6722 25.8394 30.9553 26.0313C29.8651 26.6756 28.7201 27.2225 27.5337 27.6655C28.1566 28.8888 28.8819 30.0572 29.7019 31.1581C33.3447 30.0589 36.7711 28.3406 39.8308 26.0785L39.8299 26.0794C40.6605 17.4653 38.411 9.99953 33.8838 3.38016ZM13.3553 21.5081C11.3827 21.5081 9.75296 19.718 9.75296 17.5156C9.75296 15.3134 11.326 13.5075 13.349 13.5075C15.372 13.5075 16.989 15.3134 16.9544 17.5156C16.9198 19.718 15.3657 21.5081 13.3553 21.5081ZM26.6445 21.5081C24.6687 21.5081 23.0454 19.718 23.0454 17.5156C23.0454 15.3134 24.6184 13.5075 26.6445 13.5075C28.6706 13.5075 30.2751 15.3134 30.2405 17.5156C30.2059 19.718 28.6549 21.5081 26.6445 21.5081Z" fill="#00B0D7"/>
</g>
<defs>
<clipPath id="clip0_81_91">
<rect width="40" height="30.3163" fill="white" transform="translate(0 0.841797)"/>
</clipPath>
</defs>
</svg>
