<svg width="40" height="30" viewBox="0 0 40 30" fill="none" xmlns="http://www.w3.org/2000/svg">
<g clip-path="url(#clip0_6_209)">
<path d="M2.72135 29.987H9.08203V14.541L0 7.73438V27.2917C0 28.7826 1.23047 29.987 2.72135 29.987Z" fill="#00B0D7"/>
<path d="M30.9147 29.987H37.2754C38.7956 29.987 39.9968 28.7565 39.9968 27.2656V7.73438L30.9147 14.541V29.987Z" fill="#00B0D7"/>
<path d="M30.9147 2.73438V14.541L40 7.73438V4.09505C40 0.719401 36.1524 -1.19466 33.4538 0.823568L30.9147 2.73438Z" fill="#00B0D7"/>
<path d="M9.08203 14.541V2.73438L20 10.9277L30.9147 2.73438V14.541L20 22.7083L9.08203 14.541Z" fill="#00B0D7"/>
<path d="M0 4.09505V7.73437L9.08529 14.541V2.73437L6.54622 0.823562C3.84766 -1.19141 0 0.745437 0 4.09505Z" fill="#00B0D7"/>
</g>
<defs>
<clipPath id="clip0_6_209">
<rect width="40" height="29.987" fill="white"/>
</clipPath>
</defs>
</svg>
