<svg width="40" height="40" viewBox="0 0 40 40" fill="none" xmlns="http://www.w3.org/2000/svg">
<g clip-path="url(#clip0_81_89)">
<path d="M13.333 20.0122C13.3265 16.3309 16.3061 13.3404 19.9867 13.334C23.668 13.3268 26.6591 16.305 26.6663 19.987C26.6734 23.669 23.6939 26.6589 20.0119 26.6661C16.3313 26.6731 13.3401 23.6943 13.333 20.0122ZM9.73083 20.0194C9.74185 25.6915 14.3485 30.2794 20.0191 30.2683C25.6904 30.2573 30.2808 25.6519 30.2698 19.9799C30.2588 14.3098 25.6515 9.71928 19.9796 9.73037C14.3089 9.74139 9.71982 14.3487 9.73083 20.0194ZM28.2546 9.30912C28.2572 10.6337 29.334 11.7062 30.6586 11.7036C31.9837 11.7009 33.0562 10.6246 33.0543 9.30006C33.0517 7.97553 31.9747 6.9024 30.6496 6.90506C29.3244 6.90764 28.252 7.98459 28.2546 9.30912ZM11.9502 36.2935C10.0004 36.2087 8.94153 35.8846 8.23591 35.6131C7.30146 35.2515 6.63466 34.818 5.93286 34.1215C5.23239 33.4222 4.79755 32.7573 4.43271 31.8248C4.15864 31.1191 3.8288 30.0616 3.73739 28.1118C3.63825 26.0037 3.6156 25.3713 3.60591 20.0311C3.59552 14.6922 3.61497 14.0597 3.707 11.9497C3.79052 10.0012 4.11653 8.941 4.38739 8.236C4.74896 7.30029 5.18122 6.63475 5.87911 5.93303C6.57825 5.23123 7.2431 4.79771 8.17622 4.43287C8.8813 4.1574 9.9388 3.83014 11.888 3.73756C13.9972 3.63771 14.629 3.61639 19.9679 3.606C25.308 3.59561 25.9404 3.61443 28.0504 3.70709C29.9989 3.79193 31.059 4.11467 31.7635 4.38748C32.6985 4.74904 33.3653 5.18006 34.0665 5.8792C34.7675 6.57842 35.2024 7.24193 35.5672 8.17709C35.8425 8.88014 36.1699 9.93896 36.2619 11.8876C36.3623 13.9968 36.385 14.6293 36.3947 19.9682C36.405 25.3084 36.3856 25.9409 36.293 28.0496C36.2081 29.9994 35.8847 31.059 35.6126 31.7652C35.251 32.699 34.8188 33.3658 34.1202 34.0676C33.4217 34.7668 32.7568 35.2029 31.8231 35.5677C31.1193 35.8425 30.0605 36.1704 28.1126 36.263C26.0034 36.3622 25.3715 36.3849 20.0308 36.3946C14.6918 36.405 14.0601 36.3849 11.9502 36.2935ZM11.7169 0.138496C9.58888 0.238965 8.13544 0.579746 6.86528 1.07748C5.55052 1.59006 4.43599 2.27693 3.32732 3.39021C2.21724 4.50412 1.53552 5.62061 1.02685 6.9367C0.534426 8.21006 0.200676 9.6642 0.106691 11.7936C0.0134099 13.9269 -0.00799635 14.6072 0.00239428 20.0382C0.0127849 25.4685 0.0366911 26.1502 0.13841 28.2841C0.240129 30.4115 0.579738 31.8644 1.07739 33.1351C1.5906 34.4499 2.27685 35.5639 3.39075 36.6733C4.50403 37.7826 5.62122 38.4637 6.93794 38.9731C8.20997 39.4648 9.66466 39.7999 11.7934 39.8932C13.9266 39.9872 14.6076 40.0079 20.0372 39.9976C25.4694 39.9872 26.1505 39.9632 28.2837 39.8621C30.4118 39.7604 31.8639 39.4196 33.1353 38.9231C34.45 38.4087 35.5646 37.7237 36.6734 36.6097C37.7821 35.4964 38.4638 34.3793 38.9725 33.0626C39.465 31.7905 39.8 30.3357 39.8925 28.2083C39.9859 26.0737 40.008 25.392 39.9975 19.9617C39.9872 14.5308 39.9626 13.8504 39.8615 11.7178C39.7604 9.58842 39.4196 8.13623 38.9225 6.86482C38.4087 5.55006 37.7232 4.4367 36.6099 3.3267C35.4966 2.21795 34.3794 1.5349 33.0627 1.02756C31.79 0.535059 30.3359 0.199434 28.2072 0.107402C26.074 0.012793 25.3929 -0.00791015 19.9614 0.00240235C14.5311 0.012793 13.8501 0.0360742 11.7169 0.138496Z" fill="#00B0D7"/>
</g>
<defs>
<clipPath id="clip0_81_89">
<rect width="40" height="40" fill="white"/>
</clipPath>
</defs>
</svg>
