<svg width="40" height="41" viewBox="0 0 40 41" fill="none" xmlns="http://www.w3.org/2000/svg">
<g clip-path="url(#clip0_6_216)">
<path d="M30.968 0.986984H9.03203C4.04378 0.986984 0 5.03076 0 10.019V31.7706C0 36.7588 4.04378 40.8026 9.03203 40.8026H30.968C35.9562 40.8026 40 36.7588 40 31.7706V10.019C40 5.03076 35.9562 0.986984 30.968 0.986984Z" fill="#00B0D7"/>
<path fill-rule="evenodd" clip-rule="evenodd" d="M16.0133 16.4198H21.0672V19.0104H21.1406C21.8446 17.7479 23.5656 16.4198 26.1321 16.4198C31.4688 16.4198 32.4555 19.7409 32.4555 24.0612V33.1956H27.1852L27.1844 25.0604C27.1844 23.2003 27.1461 20.8065 24.4438 20.8065C21.7 20.8065 21.2789 22.8307 21.2789 24.9253V33.1956H16.0133V16.4198ZM13.0266 11.3346C13.0266 12.8471 11.7985 14.0753 10.286 14.0753C8.77268 14.0753 7.54456 12.8471 7.54456 11.3346C7.54456 9.82135 8.77268 8.59401 10.286 8.59401C11.7985 8.59401 13.0266 9.82135 13.0266 11.3346ZM7.54456 16.4198H13.0266V33.1956H7.54456V16.4198Z" fill="white"/>
</g>
<defs>
<clipPath id="clip0_6_216">
<rect width="40" height="39.8156" fill="white" transform="translate(0 0.986984)"/>
</clipPath>
</defs>
</svg>
