<svg width="406" height="413" viewBox="0 0 406 413" fill="none" xmlns="http://www.w3.org/2000/svg">
<g clip-path="url(#clip0_6_83)">
<path d="M178.867 0C228.26 0 272.976 20.1692 305.346 52.7841C337.715 85.3957 357.734 130.446 357.734 180.209C357.734 216.615 347.016 250.5 328.588 278.84L406 363.842L352.62 413.003L277.964 330.243C249.597 349.299 215.52 360.414 178.867 360.414C129.474 360.414 84.7582 340.242 52.3888 307.63C20.0194 275.015 0 229.965 0 180.205C0 130.443 20.0194 85.3923 52.3888 52.7808C84.7582 20.1692 129.478 0 178.867 0ZM291.234 66.9977C262.481 38.0261 222.753 20.1087 178.867 20.1087C134.982 20.1087 95.2566 38.0294 66.5002 66.9977C37.7437 95.9693 19.9561 135.995 19.9561 180.205C19.9561 224.416 37.7437 264.442 66.5002 293.41C95.2566 322.385 134.982 340.299 178.867 340.299C222.753 340.299 262.481 322.385 291.234 293.41C319.991 264.442 337.775 224.419 337.775 180.205C337.775 135.992 319.991 95.9693 291.234 66.9977Z" fill="#EEEEEE" fill-opacity="0.86"/>
</g>
<defs>
<clipPath id="clip0_6_83">
<rect width="406" height="413" fill="white"/>
</clipPath>
</defs>
</svg>
