<svg width="50" height="50" viewBox="0 0 50 50" fill="none" xmlns="http://www.w3.org/2000/svg">
<path d="M19.9629 0.514148C20.8458 0.331055 21.7287 0.200855 22.5994 0.115412C23.4945 0.0299684 24.3815 -0.010719 25.2563 -0.00258152C25.7486 0.00148722 26.1433 0.404292 26.1392 0.89661C26.1351 1.275 25.8951 1.59643 25.5615 1.72256C21.8386 3.18731 18.8602 5.91743 17.0334 9.29856C15.235 12.6227 14.5515 16.5735 15.3693 20.5608L15.3733 20.5893C16.3051 25.0893 18.966 28.7878 22.5262 31.1314C26.0823 33.475 30.5294 34.4596 35.0294 33.5401L35.0579 33.536C38.2966 32.8647 41.1162 31.3023 43.3174 29.1499C45.5959 26.9243 47.2071 24.0721 47.9273 20.9474C48.0372 20.4672 48.5173 20.1702 48.9933 20.2801C49.3554 20.3655 49.6158 20.6585 49.6728 21.0043C50.7469 27.5957 49.1235 34.0528 45.5796 39.1956C42.0521 44.3141 36.6162 48.1347 30.0452 49.4855C23.283 50.877 16.598 49.396 11.2558 45.8806C5.90945 42.353 1.90988 36.7992 0.518373 30.0369C-0.840586 23.4334 0.538716 16.903 3.87915 11.6259C7.23586 6.33244 12.5659 2.29219 19.0881 0.709448C19.2142 0.676898 19.3607 0.644348 19.5194 0.607729H19.5235L19.9629 0.514148Z" fill="#1E1E1E"/>
</svg>
