<svg width="30" height="32" viewBox="0 0 30 32" fill="none" xmlns="http://www.w3.org/2000/svg">
<g clip-path="url(#clip0_99_30)">
<path d="M17.25 22.1933L9.19668 17.9727L7.20685 20.4213C10.1434 21.9736 12.7961 23.3982 15.7338 24.9518L17.25 22.1933ZM11.9191 13.0383C12.2203 13.0383 12.4649 13.2823 12.4649 13.5835C12.4649 13.8848 12.2203 14.1294 11.9191 14.1294C11.6178 14.1294 11.3739 13.8848 11.3739 13.5835C11.3739 13.2823 11.6178 13.0383 11.9191 13.0383ZM23.466 13.6065C23.7672 13.6065 24.0112 13.8505 24.0112 14.1518C24.0112 14.453 23.7672 14.6976 23.466 14.6976C23.1641 14.6976 22.9201 14.453 22.9201 14.1518C22.9201 13.8505 23.1641 13.6065 23.466 13.6065ZM28.1122 4.36193C28.4471 4.36193 28.7185 4.6333 28.7185 4.96878C28.7185 5.30364 28.4471 5.575 28.1122 5.575C27.7774 5.575 27.506 5.30364 27.506 4.96878C27.506 4.6333 27.7774 4.36193 28.1122 4.36193ZM11.0577 4.97687C11.4529 4.97687 11.7728 5.29741 11.7728 5.69264C11.7728 6.08787 11.4529 6.40778 11.0577 6.40778C10.6624 6.40778 10.3419 6.08787 10.3419 5.69264C10.3419 5.29741 10.6624 4.97687 11.0577 4.97687ZM8.91349 10.5729C9.35975 10.5729 9.72137 10.9345 9.72137 11.3808C9.72137 11.8265 9.35975 12.1881 8.91349 12.1881C8.46784 12.1881 8.10622 11.8265 8.10622 11.3808C8.10622 10.9345 8.46784 10.5729 8.91349 10.5729ZM14.4311 0.068573L15.4905 1.88413L17.5376 1.71235L16.2305 3.25467L17.011 5.16857L15.1357 4.39181L13.5971 5.70633L13.7346 3.66982L11.9533 2.58434L14.0191 2.125L14.4311 0.068573ZM21.7799 10.1074C22.0811 10.1074 22.3257 10.3514 22.3257 10.6532C22.3257 10.9545 22.0811 11.1984 21.7799 11.1984C21.4786 11.1984 21.234 10.9545 21.234 10.6532C21.234 10.3514 21.4786 10.1074 21.7799 10.1074ZM26.9284 12.4794L26.8506 12.4576C27.0299 11.8215 26.949 11.1991 26.6073 10.5904C26.2662 9.98102 25.7776 9.58704 25.1421 9.40778L25.1639 9.32998C25.8 9.50924 26.4218 9.42832 27.0311 9.08538C27.6405 8.74305 28.0351 8.25509 28.2131 7.62148L28.2915 7.64326C28.1122 8.27936 28.1932 8.90114 28.5342 9.51048C28.8759 10.1198 29.3645 10.5138 30 10.6931L29.9782 10.7709C29.3421 10.5916 28.7197 10.6725 28.111 11.0136C27.5017 11.3553 27.1077 11.8439 26.9284 12.4794ZM23.1037 6.35612H23.0029C23.0029 5.53517 22.6961 4.81691 22.0817 4.20322C21.4681 3.5889 20.7498 3.28206 19.9282 3.28206V3.18123C20.7498 3.18123 21.4681 2.87438 22.0817 2.25882C22.6961 1.64326 23.0029 0.925627 23.0029 0.10654H23.1037C23.1037 0.928117 23.4106 1.64575 24.0249 2.26007C24.6392 2.87438 25.3568 3.18123 26.1784 3.18123V3.28206C25.3568 3.28206 24.6392 3.5889 24.0249 4.20322C23.4106 4.81691 23.1037 5.53517 23.1037 6.35612ZM4.28651 8.03911L4.19689 8.08579C3.81598 7.3582 3.211 6.86463 2.38195 6.60571C1.5529 6.34679 0.774896 6.40778 0.0466805 6.7887L0 6.69969C0.728216 6.31816 1.22116 5.71318 1.47946 4.88351C1.73776 4.05322 1.67676 3.27459 1.2971 2.54949L1.3861 2.50281C1.76763 3.2304 2.37261 3.72397 3.20166 3.98289C4.03008 4.24181 4.80871 4.18081 5.53631 3.7999L5.58299 3.8889C4.85539 4.26982 4.36183 4.87542 4.1029 5.70384C3.84398 6.53289 3.90498 7.31152 4.28651 8.03911ZM18.1369 17.9702C18.1034 18.0401 18.0504 18.0989 17.9845 18.1396C17.9185 18.1803 17.8422 18.2012 17.7647 18.1999C17.6975 18.2466 17.6154 18.2727 17.5276 18.2709C17.4977 18.2702 17.4691 18.2665 17.4411 18.2596C17.3408 18.2937 17.2313 18.2871 17.1358 18.2412C17.0404 18.1954 16.9668 18.1139 16.9307 18.0144C16.0027 15.4476 14.5525 13.2511 12.7575 11.4418C10.8118 9.47936 8.45975 7.96878 5.9278 6.92749C5.72116 6.84285 5.62282 6.60633 5.70747 6.39969C5.79274 6.19305 6.02925 6.09471 6.23527 6.17936C8.86432 7.26048 11.3079 8.83081 13.3313 10.8711C14.6328 12.1831 15.7606 13.6899 16.6531 15.3854L15.2234 6.19679C15.1892 5.97583 15.3405 5.7692 15.5608 5.73559C15.6667 5.71922 15.7747 5.74555 15.8612 5.80881C15.9477 5.87206 16.0055 5.96706 16.022 6.07293L17.433 15.1364C17.6079 14.2557 17.8537 13.3881 18.1587 12.541C18.8421 10.642 19.8193 8.84513 20.9533 7.21816C20.9836 7.17438 21.0222 7.13701 21.067 7.1082C21.1118 7.07939 21.1618 7.05971 21.2142 7.05028C21.2666 7.04085 21.3203 7.04187 21.3723 7.05327C21.4243 7.06467 21.4736 7.08623 21.5172 7.11671C21.7015 7.2443 21.7463 7.497 21.6187 7.68061C20.5195 9.25841 19.5753 10.9924 18.9199 12.8136C18.4836 14.0254 18.1737 15.2783 18.0293 16.5511C18.666 15.5964 19.6183 14.4686 20.8307 13.4385C22.0867 12.3711 23.6284 11.4014 25.3954 10.8281C25.6083 10.759 25.8367 10.8754 25.9058 11.0883C25.9222 11.1389 25.9286 11.1922 25.9244 11.2452C25.9202 11.2983 25.9056 11.35 25.8815 11.3974C25.8573 11.4448 25.824 11.4869 25.7836 11.5215C25.7431 11.556 25.6962 11.5822 25.6456 11.5987C23.9894 12.1364 22.5392 13.0495 21.3541 14.0565C19.7359 15.4314 18.6174 16.97 18.1369 17.9702ZM11.6994 16.3321L9.78423 17.2576L17.6882 21.4177L25.5934 17.2495L23.8568 16.3794C24.1139 16.1901 24.3741 16.0078 24.6342 15.8316L26.0932 16.459L28.4415 14.2364L27.6734 13.8294C27.8714 13.6868 28.0581 13.5462 28.2299 13.4049L29.4598 14.0547C29.4871 14.0696 29.5127 14.0883 29.5357 14.1119C29.5644 14.141 29.587 14.1754 29.6024 14.2133C29.6177 14.2511 29.6254 14.2916 29.6251 14.3324C29.6247 14.3732 29.6163 14.4136 29.6004 14.4512C29.5844 14.4887 29.5611 14.5228 29.5319 14.5514L26.7429 17.2912L29.4442 20.524C29.4968 20.5874 29.5222 20.669 29.5149 20.7511C29.5076 20.8332 29.468 20.9091 29.405 20.9621C29.3851 20.9783 29.3639 20.9926 29.3415 21.0032L26.9166 22.2854V27.091C26.9165 27.1525 26.8982 27.2127 26.864 27.2639C26.8297 27.315 26.7811 27.3549 26.7243 27.3785L17.9571 31.8287C17.928 31.8611 17.8925 31.8869 17.8528 31.9046C17.8132 31.9223 17.7702 31.9314 17.7268 31.9314C17.6048 31.9314 17.4996 31.8617 17.4485 31.7597L8.66452 27.3686C8.61292 27.3428 8.56951 27.3032 8.53916 27.2542C8.50882 27.2052 8.49274 27.1486 8.49274 27.091L8.49149 22.309L6.02116 21.0032C5.99875 20.9926 5.97822 20.9783 5.9583 20.9621C5.92695 20.9359 5.90106 20.9038 5.88212 20.8676C5.86318 20.8314 5.85156 20.7919 5.84792 20.7512C5.84428 20.7105 5.84869 20.6695 5.8609 20.6305C5.87311 20.5915 5.89288 20.5553 5.91909 20.524L8.55062 17.3752L5.49772 14.4823C5.38444 14.3534 5.39813 14.1574 5.52697 14.0441C5.54627 14.0279 5.56556 14.0136 5.58672 14.003L7.01079 13.197C7.20062 13.3781 7.38237 13.5325 7.5417 13.6538L6.56141 14.2016L9.13755 16.5648L11.4137 15.4632C11.5071 15.757 11.6029 16.0501 11.6994 16.3321ZM26.1896 18.0455L18.3162 21.9904L20.0515 24.981L28.3469 20.6609L26.1896 18.0455Z" fill="#EEEEEE"/>
</g>
<defs>
<clipPath id="clip0_99_30">
<rect width="30" height="31.8629" fill="white" transform="translate(0 0.068573)"/>
</clipPath>
</defs>
</svg>
